<mxfile host="app.diagrams.net" modified="2023-06-20T00:58:53.479Z" agent="Mozilla/5.0 (Windows NT 10.0; Win64; x64) AppleWebKit/537.36 (KHTML, like Gecko) Chrome/114.0.0.0 Safari/537.36" version="21.3.8" etag="phVGJf7hpVQyrtkvQvon" type="github">
  <diagram name="Page-1" id="SLoT1vQXno8aa5vxZDG2">
    <mxGraphModel>
      <root>
        <mxCell id="0" />
        <mxCell id="1" parent="0" />
      </root>
    </mxGraphModel>
  </diagram>
</mxfile>
